<svg width="30" height="30" viewBox="0 0 30 30" fill="none" xmlns="http://www.w3.org/2000/svg">
<path d="M10.8939 13.0016C10.8939 13.1104 10.9371 13.2147 11.014 13.2916C11.0909 13.3685 11.1952 13.4118 11.304 13.4118H13.961C14.0698 13.4118 14.1741 13.3685 14.251 13.2916C14.328 13.2147 14.3712 13.1104 14.3712 13.0016V10.6893C14.3712 10.5805 14.328 10.4762 14.251 10.3993C14.1741 10.3224 14.0698 10.2792 13.961 10.2792H11.304C11.1952 10.2792 11.0909 10.3224 11.014 10.3993C10.9371 10.4762 10.8939 10.5805 10.8939 10.6893V13.0016ZM11.7142 11.0995H13.5509V12.5914H11.7142V11.0995ZM19.1061 10.6893C19.1061 10.5805 19.0629 10.4762 18.986 10.3993C18.9091 10.3224 18.8048 10.2792 18.696 10.2792H16.039C15.9302 10.2792 15.8259 10.3224 15.749 10.3993C15.672 10.4762 15.6288 10.5805 15.6288 10.6893V13.0016C15.6288 13.1104 15.672 13.2147 15.749 13.2916C15.8259 13.3685 15.9302 13.4118 16.039 13.4118H18.696C18.8048 13.4118 18.9091 13.3685 18.986 13.2916C19.0629 13.2147 19.1061 13.1104 19.1061 13.0016V10.6893ZM18.2858 12.5914H16.4491V11.0995H18.2858V12.5914ZM29.2177 12.6543L20.8707 9.24281V5.26447C20.8707 5.15569 20.8275 5.05137 20.7506 4.97445C20.6736 4.89753 20.5693 4.85432 20.4605 4.85432H17.8785V3.19875C17.8785 3.08997 17.8353 2.98564 17.7583 2.90873C17.6814 2.83181 17.5771 2.78859 17.4683 2.78859H15.4102V0.918457C15.4102 0.809677 15.3669 0.705352 15.29 0.628433C15.2131 0.551514 15.1088 0.508301 15 0.508301C14.8912 0.508301 14.7869 0.551514 14.71 0.628433C14.6331 0.705352 14.5898 0.809677 14.5898 0.918457V2.78859H12.5023C12.3935 2.78859 12.2892 2.83181 12.2123 2.90873C12.1354 2.98564 12.0922 3.08997 12.0922 3.19875V4.85432H9.53947C9.43069 4.85432 9.32637 4.89753 9.24945 4.97445C9.17253 5.05137 9.12932 5.15569 9.12932 5.26447V9.24281L0.782344 12.6543C0.706946 12.6851 0.642431 12.7377 0.597017 12.8053C0.551604 12.8729 0.527349 12.9526 0.527344 13.034V27.6122C0.527344 27.721 0.570557 27.8254 0.647476 27.9023C0.724395 27.9792 0.82872 28.0224 0.9375 28.0224C1.04628 28.0224 1.15061 27.9792 1.22752 27.9023C1.30444 27.8254 1.34766 27.721 1.34766 27.6122V13.3095L9.12932 10.129V23.1816C9.12932 23.2903 9.17253 23.3947 9.24945 23.4716C9.32637 23.5485 9.43069 23.5917 9.53947 23.5917C9.64825 23.5917 9.75258 23.5485 9.8295 23.4716C9.90642 23.3947 9.94963 23.2903 9.94963 23.1816V5.67463H20.0504V23.1469C20.0504 23.2557 20.0936 23.36 20.1706 23.4369C20.2475 23.5138 20.3518 23.557 20.4606 23.557C20.5694 23.557 20.6737 23.5138 20.7506 23.4369C20.8275 23.36 20.8707 23.2557 20.8707 23.1469V10.129L28.6523 13.3095V27.6122C28.6523 27.721 28.6956 27.8254 28.7725 27.9023C28.8494 27.9792 28.9537 28.0224 29.0625 28.0224C29.1713 28.0224 29.2756 27.9792 29.3525 27.9023C29.4294 27.8254 29.4727 27.721 29.4727 27.6122V13.034C29.4727 12.9526 29.4484 12.8729 29.403 12.8053C29.3576 12.7377 29.2931 12.6851 29.2177 12.6543ZM12.9125 3.60891H17.0582V4.85432H12.9125V3.60891ZM27.0966 16.212C27.1588 16.2374 27.2264 16.2471 27.2933 16.2402C27.3602 16.2333 27.4244 16.2101 27.4802 16.1725C27.536 16.135 27.5817 16.0844 27.6133 16.025C27.6449 15.9657 27.6615 15.8995 27.6615 15.8322V14.206C27.6615 14.1245 27.6372 14.0448 27.5917 13.9771C27.5462 13.9095 27.4816 13.8569 27.4061 13.8261L22.4265 11.7981C22.3642 11.7727 22.2967 11.7631 22.2298 11.77C22.1629 11.7769 22.0988 11.8001 22.043 11.8376C21.9872 11.8752 21.9414 11.9258 21.9098 11.9852C21.8782 12.0445 21.8616 12.1107 21.8616 12.1779V13.8042C21.8616 13.8857 21.8859 13.9654 21.9314 14.033C21.9769 14.1007 22.0415 14.1532 22.117 14.184L27.0966 16.212ZM22.6819 12.7878L26.8411 14.4817V15.2222L22.6819 13.5282V12.7878ZM7.95715 11.8375C7.90134 11.8 7.83716 11.7768 7.77027 11.7699C7.70338 11.763 7.63582 11.7727 7.57354 11.798L2.594 13.8261C2.5185 13.8568 2.45387 13.9094 2.40838 13.9771C2.36289 14.0447 2.33859 14.1244 2.33859 14.2059V15.8321C2.33863 15.8994 2.35519 15.9656 2.38681 16.0249C2.41844 16.0842 2.46416 16.1349 2.51995 16.1724C2.57575 16.2099 2.63991 16.2331 2.70679 16.24C2.77367 16.2469 2.84122 16.2373 2.9035 16.212L7.88303 14.1839C7.95853 14.1531 8.02316 14.1006 8.06865 14.0329C8.11415 13.9653 8.13844 13.8856 8.13844 13.804V12.1778C8.13842 12.1106 8.12188 12.0444 8.09027 11.985C8.05866 11.9257 8.01294 11.875 7.95715 11.8375ZM7.31813 13.5283L3.15891 15.2223V14.4817L7.31813 12.7878V13.5283ZM10.8939 16.9597C10.8939 17.0684 10.9371 17.1728 11.014 17.2497C11.0909 17.3266 11.1952 17.3698 11.304 17.3698H13.961C14.0698 17.3698 14.1741 17.3266 14.251 17.2497C14.328 17.1728 14.3712 17.0684 14.3712 16.9597V14.6474C14.3712 14.5386 14.328 14.4343 14.251 14.3574C14.1741 14.2804 14.0698 14.2372 13.961 14.2372H11.304C11.1952 14.2372 11.0909 14.2804 11.014 14.3574C10.9371 14.4343 10.8939 14.5386 10.8939 14.6474V16.9597ZM11.7142 15.0575H13.5509V16.5495H11.7142V15.0575ZM19.1061 16.9597V14.6474C19.1061 14.5386 19.0629 14.4343 18.986 14.3574C18.9091 14.2804 18.8048 14.2372 18.696 14.2372H16.039C15.9302 14.2372 15.8259 14.2804 15.749 14.3574C15.672 14.4343 15.6288 14.5386 15.6288 14.6474V16.9597C15.6288 17.0684 15.672 17.1728 15.749 17.2497C15.8259 17.3266 15.9302 17.3698 16.039 17.3698H18.696C18.8048 17.3698 18.9091 17.3266 18.986 17.2497C19.0629 17.1728 19.1061 17.0684 19.1061 16.9597ZM18.2858 16.5495H16.4491V15.0575H18.2858V16.5495ZM6.27844 18.8396C5.09408 18.8396 4.13057 19.803 4.13057 20.9873C4.13057 22.1716 5.09408 23.1352 6.27844 23.1352C7.46279 23.1352 8.42631 22.1716 8.42631 20.9873C8.42637 19.8031 7.46279 18.8396 6.27844 18.8396ZM6.27844 22.3149C5.54643 22.3149 4.95088 21.7194 4.95088 20.9873C4.95088 20.2554 5.54643 19.66 6.27844 19.66C7.01045 19.66 7.606 20.2554 7.606 20.9873C7.60606 21.7194 7.01051 22.3149 6.27844 22.3149ZM23.7219 23.1004C24.9062 23.1004 25.8697 22.1368 25.8697 20.9525C25.8697 19.7683 24.9062 18.8049 23.7219 18.8049C22.5374 18.8049 21.5739 19.7683 21.5739 20.9525C21.5739 22.1368 22.5374 23.1004 23.7219 23.1004ZM23.7219 19.6252C24.4539 19.6252 25.0494 20.2206 25.0494 20.9525C25.0494 21.6845 24.4539 22.28 23.7219 22.28C22.9898 22.28 22.3942 21.6845 22.3942 20.9525C22.3942 20.2206 22.9897 19.6252 23.7219 19.6252ZM23.7219 23.2815C21.4225 23.2815 19.5517 25.1521 19.5517 27.4513C19.5517 27.9173 19.8021 28.565 20.9951 29.0043C21.7213 29.2716 22.6896 29.4188 23.7217 29.4188C24.7538 29.4188 25.7222 29.2716 26.4483 29.0043C27.6413 28.565 27.8917 27.9173 27.8917 27.4513C27.8917 25.1521 26.0211 23.2815 23.7219 23.2815ZM23.7217 28.5985C21.8747 28.5985 20.3721 28.0839 20.3721 27.4513C20.3721 25.6044 21.8747 24.1018 23.7219 24.1018C25.5688 24.1018 27.0714 25.6044 27.0714 27.4513C27.0714 28.0839 25.5687 28.5985 23.7217 28.5985ZM12.8522 20.9873C12.8522 22.1717 13.8158 23.1352 15.0001 23.1352C16.1845 23.1352 17.148 22.1717 17.148 20.9873C17.148 19.8031 16.1845 18.8397 15.0001 18.8397C13.8158 18.8397 12.8522 19.8031 12.8522 20.9873ZM16.3277 20.9873C16.3277 21.7194 15.7321 22.3149 15.0001 22.3149C14.2681 22.3149 13.6726 21.7194 13.6726 20.9873C13.6726 20.2554 14.2681 19.66 15.0001 19.66C15.7321 19.66 16.3277 20.2554 16.3277 20.9873ZM15.0001 23.3163C12.7007 23.3163 10.83 25.1869 10.83 27.4862C10.83 27.9521 11.0804 28.5998 12.2734 29.0391C12.9995 29.3064 13.9679 29.4536 15 29.4536C16.0321 29.4536 17.0004 29.3064 17.7265 29.0391C18.9195 28.5998 19.1699 27.9521 19.1699 27.4862C19.1699 25.1869 17.2993 23.3163 15.0001 23.3163ZM15 28.6333C13.153 28.6333 11.6503 28.1187 11.6503 27.4862C11.6503 25.6392 13.153 24.1366 15.0001 24.1366C16.8471 24.1366 18.3496 25.6393 18.3496 27.4862C18.3496 28.1187 16.8469 28.6333 15 28.6333ZM6.27844 23.3163C3.97904 23.3163 2.10832 25.1869 2.10832 27.4862C2.10832 27.9521 2.35869 28.5998 3.55172 29.0391C4.27787 29.3064 5.24619 29.4536 6.27832 29.4536C7.31039 29.4536 8.27877 29.3064 9.00486 29.0391C10.1978 28.5998 10.4483 27.9521 10.4483 27.4862C10.4483 25.1869 8.57771 23.3163 6.27844 23.3163ZM6.27832 28.6333C4.43133 28.6333 2.92863 28.1187 2.92863 27.4862C2.92863 25.6392 4.43133 24.1366 6.27844 24.1366C8.12537 24.1366 9.62795 25.6393 9.62795 27.4862C9.62795 28.1187 8.12531 28.6333 6.27832 28.6333ZM19.1061 7.00957C19.1061 6.90079 19.0629 6.79646 18.986 6.71955C18.9091 6.64263 18.8048 6.59941 18.696 6.59941H11.304C11.1952 6.59941 11.0909 6.64263 11.014 6.71955C10.9371 6.79646 10.8939 6.90079 10.8939 7.00957V8.63578C10.8939 8.74456 10.9371 8.84889 11.014 8.92581C11.0909 9.00272 11.1952 9.04594 11.304 9.04594H18.696C18.8048 9.04594 18.9091 9.00272 18.986 8.92581C19.0629 8.84889 19.1061 8.74456 19.1061 8.63578V7.00957ZM18.2858 8.22563H11.7142V7.41973H18.2858V8.22563Z" fill="#333333"/>
</svg>
