<svg width="28" height="29" viewBox="0 0 28 29" fill="none" xmlns="http://www.w3.org/2000/svg">
<path d="M3.77656 0.861816C3.05991 0.861816 2.35936 1.07433 1.76349 1.47248C1.16762 1.87062 0.703191 2.43653 0.428941 3.09862C0.154692 3.76072 0.0829358 4.48927 0.222747 5.19215C0.362558 5.89503 0.707657 6.54066 1.2144 7.04741C1.72115 7.55416 2.36679 7.89926 3.06966 8.03907C3.77254 8.17888 4.50109 8.10712 5.16319 7.83287C5.82529 7.55862 6.39119 7.0942 6.78934 6.49833C7.18749 5.90246 7.4 5.2019 7.4 4.48525C7.39876 3.52464 7.01661 2.60372 6.33735 1.92447C5.65809 1.24521 4.73718 0.863057 3.77656 0.861816ZM3.77656 6.70244C3.33804 6.70244 2.90937 6.57241 2.54476 6.32878C2.18014 6.08515 1.89596 5.73887 1.72815 5.33373C1.56033 4.9286 1.51643 4.48279 1.60198 4.0527C1.68753 3.62261 1.89869 3.22754 2.20877 2.91747C2.51885 2.60739 2.91392 2.39622 3.34401 2.31067C3.7741 2.22512 4.2199 2.26903 4.62504 2.43684C5.03018 2.60465 5.37646 2.88884 5.62009 3.25345C5.86371 3.61807 5.99375 4.04674 5.99375 4.48525C5.99622 4.77799 5.9407 5.06832 5.83039 5.33949C5.72007 5.61066 5.55715 5.8573 5.35102 6.06518C5.14488 6.27305 4.89963 6.43805 4.6294 6.55064C4.35916 6.66324 4.06931 6.7212 3.77656 6.72119V6.70244ZM3.77656 11.0665C3.05991 11.0665 2.35936 11.279 1.76349 11.6772C1.16762 12.0753 0.703191 12.6412 0.428941 13.3033C0.154692 13.9654 0.0829358 14.694 0.222747 15.3968C0.362558 16.0997 0.707657 16.7454 1.2144 17.2521C1.72115 17.7588 2.36679 18.1039 3.06966 18.2438C3.77254 18.3836 4.50109 18.3118 5.16319 18.0376C5.82529 17.7633 6.39119 17.2989 6.78934 16.703C7.18749 16.1071 7.4 15.4066 7.4 14.6899C7.39876 13.7293 7.01661 12.8084 6.33735 12.1292C5.65809 11.4499 4.73718 11.0677 3.77656 11.0665ZM3.77656 16.9071C3.33804 16.9071 2.90937 16.7771 2.54476 16.5335C2.18014 16.2898 1.89596 15.9436 1.72815 15.5384C1.56033 15.1333 1.51643 14.6875 1.60198 14.2574C1.68753 13.8273 1.89869 13.4322 2.20877 13.1222C2.51885 12.8121 2.91392 12.6009 3.34401 12.5154C3.7741 12.4298 4.2199 12.4737 4.62504 12.6415C5.03018 12.8093 5.37646 13.0935 5.62009 13.4581C5.86371 13.8228 5.99375 14.2514 5.99375 14.6899C5.99375 14.9811 5.9364 15.2694 5.82498 15.5384C5.71355 15.8074 5.55023 16.0518 5.34435 16.2577C5.13846 16.4636 4.89404 16.6269 4.62504 16.7384C4.35604 16.8498 4.06773 16.9071 3.77656 16.9071ZM3.77656 21.2524C3.05991 21.2524 2.35936 21.465 1.76349 21.8631C1.16762 22.2612 0.703191 22.8272 0.428941 23.4893C0.154692 24.1513 0.0829358 24.8799 0.222747 25.5828C0.362558 26.2857 0.707657 26.9313 1.2144 27.438C1.72115 27.9448 2.36679 28.2899 3.06966 28.4297C3.77254 28.5695 4.50109 28.4977 5.16319 28.2235C5.82529 27.9492 6.39119 27.4848 6.78934 26.889C7.18749 26.2931 7.4 25.5925 7.4 24.8759C7.39876 23.9153 7.01661 22.9943 6.33735 22.3151C5.65809 21.6358 4.73718 21.2537 3.77656 21.2524ZM3.77656 27.0931C3.33804 27.0931 2.90937 26.963 2.54476 26.7194C2.18014 26.4758 1.89596 26.1295 1.72815 25.7244C1.56033 25.3192 1.51643 24.8734 1.60198 24.4433C1.68753 24.0132 1.89869 23.6182 2.20877 23.3081C2.51885 22.998 2.91392 22.7868 3.34401 22.7013C3.7741 22.6157 4.2199 22.6597 4.62504 22.8275C5.03018 22.9953 5.37646 23.2795 5.62009 23.6441C5.86371 24.0087 5.99375 24.4374 5.99375 24.8759C5.99622 25.1686 5.9407 25.459 5.83039 25.7301C5.72007 26.0013 5.55715 26.2479 5.35102 26.4558C5.14488 26.6637 4.89963 26.8287 4.6294 26.9413C4.35916 27.0539 4.06931 27.1118 3.77656 27.1118V27.0931ZM13.025 6.64619H25.6812C25.9738 6.65981 26.2661 6.61395 26.5404 6.51138C26.8147 6.40881 27.0654 6.25167 27.2773 6.04945C27.4891 5.84723 27.6578 5.60413 27.773 5.33488C27.8882 5.06562 27.9476 4.77579 27.9476 4.48291C27.9476 4.19004 27.8882 3.9002 27.773 3.63094C27.6578 3.36169 27.4891 3.11859 27.2773 2.91637C27.0654 2.71415 26.8147 2.55701 26.5404 2.45444C26.2661 2.35187 25.9738 2.30601 25.6812 2.31963H13.025C12.4687 2.34553 11.9437 2.58476 11.5592 2.98762C11.1747 3.39048 10.9601 3.92599 10.9601 4.48291C10.9601 5.03983 11.1747 5.57535 11.5592 5.9782C11.9437 6.38106 12.4687 6.62029 13.025 6.64619ZM13.025 3.72588H25.6812C25.7857 3.71766 25.8907 3.73112 25.9896 3.76544C26.0886 3.79975 26.1794 3.85417 26.2563 3.92527C26.3332 3.99637 26.3946 4.08262 26.4366 4.17858C26.4786 4.27455 26.5002 4.37816 26.5002 4.48291C26.5002 4.58766 26.4786 4.69127 26.4366 4.78724C26.3946 4.8832 26.3332 4.96945 26.2563 5.04055C26.1794 5.11165 26.0886 5.16607 25.9896 5.20038C25.8907 5.2347 25.7857 5.24816 25.6812 5.23994H13.025C12.8345 5.22494 12.6567 5.13868 12.527 4.99836C12.3973 4.85804 12.3252 4.67399 12.3252 4.48291C12.3252 4.29183 12.3973 4.10778 12.527 3.96746C12.6567 3.82714 12.8345 3.74088 13.025 3.72588ZM25.6812 12.5243H13.025C12.4506 12.5243 11.8998 12.7525 11.4937 13.1586C11.0875 13.5647 10.8594 14.1156 10.8594 14.6899C10.8594 15.2643 11.0875 15.8151 11.4937 16.2213C11.8998 16.6274 12.4506 16.8556 13.025 16.8556H25.6812C26.2556 16.8556 26.8064 16.6274 27.2126 16.2213C27.6187 15.8151 27.8469 15.2643 27.8469 14.6899C27.8469 14.1156 27.6187 13.5647 27.2126 13.1586C26.8064 12.7525 26.2556 12.5243 25.6812 12.5243ZM25.6812 15.4493H13.025C12.8236 15.4493 12.6304 15.3693 12.488 15.2269C12.3456 15.0845 12.2656 14.8913 12.2656 14.6899C12.2656 14.4885 12.3456 14.2954 12.488 14.153C12.6304 14.0106 12.8236 13.9306 13.025 13.9306H25.6812C25.8826 13.9306 26.0758 14.0106 26.2182 14.153C26.3606 14.2954 26.4406 14.4885 26.4406 14.6899C26.4406 14.8913 26.3606 15.0845 26.2182 15.2269C26.0758 15.3693 25.8826 15.4493 25.6812 15.4493ZM25.6812 22.729H13.025C12.4687 22.7549 11.9437 22.9941 11.5592 23.397C11.1747 23.7998 10.9601 24.3354 10.9601 24.8923C10.9601 25.4492 11.1747 25.9847 11.5592 26.3876C11.9437 26.7904 12.4687 27.0297 13.025 27.0556H25.6812C25.9738 27.0692 26.2661 27.0233 26.5404 26.9208C26.8147 26.8182 27.0654 26.661 27.2773 26.4588C27.4891 26.2566 27.6578 26.0135 27.773 25.7443C27.8882 25.475 27.9476 25.1852 27.9476 24.8923C27.9476 24.5994 27.8882 24.3096 27.773 24.0403C27.6578 23.7711 27.4891 23.528 27.2773 23.3258C27.0654 23.1235 26.8147 22.9664 26.5404 22.8638C26.2661 22.7612 25.9738 22.7154 25.6812 22.729ZM25.6812 25.6493H13.025C12.8345 25.6343 12.6567 25.5481 12.527 25.4077C12.3973 25.2674 12.3252 25.0834 12.3252 24.8923C12.3252 24.7012 12.3973 24.5172 12.527 24.3768C12.6567 24.2365 12.8345 24.1503 13.025 24.1353H25.6812C25.7857 24.127 25.8907 24.1405 25.9896 24.1748C26.0886 24.2091 26.1794 24.2635 26.2563 24.3346C26.3332 24.4057 26.3946 24.492 26.4366 24.588C26.4786 24.6839 26.5002 24.7875 26.5002 24.8923C26.5002 24.997 26.4786 25.1006 26.4366 25.1966C26.3946 25.2926 26.3332 25.3788 26.2563 25.4499C26.1794 25.521 26.0886 25.5754 25.9896 25.6098C25.8907 25.6441 25.7857 25.6575 25.6812 25.6493Z" fill="black"/>
</svg>
