<svg width="30" height="31" viewBox="0 0 30 31" fill="none" xmlns="http://www.w3.org/2000/svg">
<g clip-path="url(#clip0_7287_1914)">
<path d="M30.0001 15.9235C29.6564 23.9697 23.0664 30.2722 15.0001 30.2722C9.95012 30.2722 5.37637 27.7922 2.57887 23.6335C2.53762 23.7572 2.50012 23.8847 2.50012 24.0222V29.6472C2.50012 29.9922 2.22012 30.2722 1.87512 30.2722C1.53012 30.2722 1.25012 29.9922 1.25012 29.6472V24.0222C1.25012 22.6435 2.37137 21.5222 3.75012 21.5222H9.37512C9.72012 21.5222 10.0001 21.8022 10.0001 22.1472C10.0001 22.4922 9.72012 22.7722 9.37512 22.7722H3.75012C3.67262 22.7722 3.60512 22.8022 3.53262 22.816C6.08887 26.7022 10.3226 29.0222 15.0001 29.0222C22.3951 29.0222 28.4351 23.2447 28.7501 15.871C28.7651 15.5347 29.0414 15.2722 29.3751 15.2722C29.3839 15.2722 29.3926 15.2722 29.4014 15.2722C29.7451 15.2872 30.0139 15.5785 30.0001 15.9235ZM15.0001 1.52222C19.6776 1.52222 23.9126 3.84222 26.4676 7.72847C26.3939 7.74222 26.3264 7.77222 26.2501 7.77222H20.6251C20.2801 7.77222 20.0001 8.05222 20.0001 8.39722C20.0001 8.74222 20.2801 9.02222 20.6251 9.02222H26.2501C27.6289 9.02222 28.7501 7.90097 28.7501 6.52222V0.897217C28.7501 0.552217 28.4701 0.272217 28.1251 0.272217C27.7801 0.272217 27.5001 0.552217 27.5001 0.897217V6.52222C27.5001 6.65972 27.4626 6.78722 27.4214 6.91097C24.6239 2.75222 20.0501 0.272217 15.0001 0.272217C6.93387 0.272217 0.343868 6.57472 0.00011795 14.621C-0.014882 14.966 0.253868 15.2572 0.598868 15.2722C0.608868 15.2722 0.617618 15.2722 0.625118 15.2722C0.958868 15.2722 1.23512 15.0097 1.25012 14.6735C1.56512 7.29972 7.60512 1.52222 15.0001 1.52222ZM11.0289 25.801C12.2964 26.2797 13.6326 26.5222 15.0001 26.5222C21.2039 26.5222 26.2501 21.4747 26.2501 15.2722C26.2501 14.1447 26.0839 13.0322 25.7551 11.9635C25.6551 11.6335 25.3101 11.4472 24.9739 11.5497C24.6439 11.6522 24.4589 12.001 24.5614 12.331C24.8526 13.2797 25.0014 14.2697 25.0014 15.2722C25.0014 20.786 20.5151 25.2722 15.0014 25.2722C13.7851 25.2722 12.5976 25.0572 11.4726 24.6322C11.1464 24.5097 10.7876 24.6735 10.6664 24.996C10.5439 25.3185 10.7076 25.6797 11.0301 25.8022L11.0289 25.801ZM15.0001 5.27222C16.2164 5.27222 17.4039 5.48722 18.5289 5.91222C18.8539 6.03472 19.2139 5.87097 19.3351 5.54847C19.4576 5.22597 19.2939 4.86472 18.9714 4.74222C17.7039 4.26347 16.3676 4.02097 15.0001 4.02097C8.79637 4.02222 3.75012 9.06972 3.75012 15.2722C3.75012 16.3997 3.91637 17.5122 4.24512 18.581C4.32637 18.8497 4.57512 19.0222 4.84262 19.0222C4.90387 19.0222 4.96512 19.0135 5.02637 18.9947C5.35637 18.8922 5.54137 18.5435 5.43887 18.2135C5.14762 17.2647 4.99887 16.2747 4.99887 15.2722C4.99887 9.75847 9.48512 5.27222 14.9989 5.27222H15.0001ZM13.9476 11.5222H16.0526C16.7726 11.5222 17.5001 11.9085 17.5001 12.7722C17.5001 13.1172 17.7801 13.3972 18.1251 13.3972C18.4701 13.3972 18.7501 13.1172 18.7501 12.7722C18.7501 11.3235 17.6164 10.2722 16.0526 10.2722H15.6251V9.64722C15.6251 9.30222 15.3451 9.02222 15.0001 9.02222C14.6551 9.02222 14.3751 9.30222 14.3751 9.64722V10.2722H13.9476C12.4601 10.2722 11.2501 11.4822 11.2501 12.9697C11.2501 14.2935 12.1989 15.4122 13.4939 15.6285L16.2901 16.1472C16.9914 16.2647 17.5001 16.8647 17.5001 17.5747C17.5001 18.3735 16.8501 19.0222 16.0526 19.0222H13.9476C13.2276 19.0222 12.5001 18.636 12.5001 17.7722C12.5001 17.4272 12.2201 17.1472 11.8751 17.1472C11.5301 17.1472 11.2501 17.4272 11.2501 17.7722C11.2501 19.221 12.3839 20.2722 13.9476 20.2722H14.3751V20.8972C14.3751 21.2422 14.6551 21.5222 15.0001 21.5222C15.3451 21.5222 15.6251 21.2422 15.6251 20.8972V20.2722H16.0526C17.5401 20.2722 18.7501 19.0622 18.7501 17.5747C18.7501 16.251 17.8014 15.1322 16.5064 14.916L13.7101 14.3972C13.0089 14.2797 12.5001 13.6797 12.5001 12.9697C12.5001 12.171 13.1501 11.5222 13.9476 11.5222Z" fill="#333333"/>
</g>
<defs>
<clipPath id="clip0_7287_1914">
<rect width="30" height="30" fill="white" transform="translate(0 0.272217)"/>
</clipPath>
</defs>
</svg>
